# xmcd
#
# Track frame offsets:
# 150
# 18357
# 35696
# 51633
# 67319
# 80747
# 96342
# 112484
# 132041
# 153459
# 168294
# 182140
# 199436
# 212477
# 226605
# 243982
# 258547
# 275224
#
# Disc length: 3895 seconds
#
#
# Revision: 0
# Processed by: cddbd v1.5.2PL0 Copyright (c) Steve Scherf et al.
# Submitted via: FreeRIP 2.945 
#
DISCID=170f3512
DTITLE=Cezar e Paulinho - O Melhor de Cezar e Paulinho
DYEAR=1900
DGENRE=Sertanejo
TTITLE0=Cuida de Mim Deus
TTITLE1=Feijão e a Flor
TTITLE2=Você marcou para mim
TTITLE3=Mel e morango
TTITLE4=A noite do nosso amor
TTITLE5=Só por você
TTITLE6=Duas vezes você
TTITLE7=Fui eu
TTITLE8=Nunca mais
TTITLE9=Morto de saudade sua
TTITLE10=Noite maravilhosa
TTITLE11=Mais você do que eu
TTITLE12=Toda noite
TTITLE13=Você é tudo ue pedi pra Deus (magia)
TTITLE14=A gente se ama
TTITLE15=A volta do brasileiro
TTITLE16=Faz de conta que eu sou ele
TTITLE17=Viajante solitário ( o comboio)
EXTD=
EXTT0=
EXTT1=
EXTT2=
EXTT3=
EXTT4=
EXTT5=
EXTT6=
EXTT7=
EXTT8=
EXTT9=
EXTT10=
EXTT11=
EXTT12=
EXTT13=
EXTT14=
EXTT15=
EXTT16=
EXTT17=
PLAYORDER=
